<?xml version="1.0" encoding="UTF-8"?>
<svg version="1.1" xmlns="http://www.w3.org/2000/svg" width="339" height="117">
<path d="M0 0 C0.79903244 -0.00511093 1.59806488 -0.01022186 2.42131042 -0.01548767 C5.05520173 -0.02935499 7.68883049 -0.02842892 10.32275391 -0.02612305 C12.15971981 -0.03001183 13.99668483 -0.03434688 15.83364868 -0.03910828 C19.68193477 -0.04656455 23.53012911 -0.04628371 27.37841797 -0.04101562 C32.30005468 -0.03522487 37.22131458 -0.05214534 42.14288902 -0.0753603 C45.93653545 -0.09012231 49.73009168 -0.09096593 53.52376175 -0.08785057 C55.33777232 -0.08836264 57.1517881 -0.09357891 58.96577072 -0.10366249 C61.50737431 -0.11605616 64.04825102 -0.10921772 66.58984375 -0.09765625 C67.70447746 -0.10912186 67.70447746 -0.10912186 68.84162903 -0.12081909 C74.65916816 -0.06258894 79.40168899 1.10881674 83.88525391 4.95825195 C84.58521484 5.82643555 84.58521484 5.82643555 85.29931641 6.7121582 C85.78142578 7.28836914 86.26353516 7.86458008 86.76025391 8.45825195 C88.91497777 11.82048886 89.06228251 15.03991186 89.04931641 18.9621582 C89.05318359 20.14358398 89.05318359 20.14358398 89.05712891 21.34887695 C88.92431641 23.2746582 88.92431641 23.2746582 87.92431641 24.2746582 C85.24643667 24.36978764 82.59442772 24.40021099 79.91625977 24.38818359 C79.07730667 24.38832962 78.23835358 24.38847565 77.37397766 24.3886261 C74.58734596 24.3879267 71.80078025 24.38013306 69.01416016 24.37231445 C67.08744849 24.37045037 65.16073635 24.36902642 63.23402405 24.36802673 C58.15244243 24.36420079 53.07088921 24.35436986 47.98931885 24.34332275 C42.80815007 24.33311027 37.62697672 24.32852946 32.44580078 24.32348633 C22.27195815 24.31274766 12.09814407 24.29515025 1.92431641 24.2746582 C1.92431641 30.8746582 1.92431641 37.4746582 1.92431641 44.2746582 C3.78958984 44.26305664 5.65486328 44.25145508 7.57666016 44.23950195 C10.00504458 44.23012595 12.43343007 44.22102555 14.86181641 44.2121582 C16.09351563 44.2037793 17.32521484 44.19540039 18.59423828 44.18676758 C19.7640625 44.18354492 20.93388672 44.18032227 22.13916016 44.17700195 C23.76519165 44.16914673 23.76519165 44.16914673 25.42407227 44.16113281 C27.92431641 44.2746582 27.92431641 44.2746582 28.92431641 45.2746582 C29.20266409 48.74599117 29.15607842 52.23098324 29.17431641 55.7121582 C29.19494141 56.69249023 29.21556641 57.67282227 29.23681641 58.68286133 C29.24455078 60.08761719 29.24455078 60.08761719 29.25244141 61.52075195 C29.26645996 62.81517212 29.26645996 62.81517212 29.28076172 64.13574219 C29.16313477 64.84158447 29.04550781 65.54742676 28.92431641 66.2746582 C25.57312121 68.50878833 24.5065409 68.51313582 20.60009766 68.4699707 C19.57207031 68.46352539 18.54404297 68.45708008 17.48486328 68.45043945 C16.41300781 68.43368164 15.34115234 68.41692383 14.23681641 68.3996582 C13.15335938 68.39063477 12.06990234 68.38161133 10.95361328 68.37231445 C8.2769593 68.3487316 5.60074844 68.31581947 2.92431641 68.2746582 C2.8334375 69.44834961 2.8334375 69.44834961 2.74072266 70.64575195 C2.65693359 71.65766602 2.57314453 72.66958008 2.48681641 73.7121582 C2.40560547 74.72149414 2.32439453 75.73083008 2.24072266 76.77075195 C1.92431641 79.2746582 1.92431641 79.2746582 0.92431641 80.2746582 C-0.63741104 80.36151423 -2.20297704 80.3816804 -3.76708984 80.37231445 C-4.71132813 80.3690918 -5.65556641 80.36586914 -6.62841797 80.36254883 C-7.62164062 80.35416992 -8.61486328 80.34579102 -9.63818359 80.3371582 C-10.63527344 80.33264648 -11.63236328 80.32813477 -12.65966797 80.32348633 C-15.13173208 80.31165827 -17.60367877 80.2951767 -20.07568359 80.2746582 C-22.11738363 76.88943834 -22.33313942 74.2706431 -22.3503418 70.34790039 C-22.36463982 68.55518707 -22.36463982 68.55518707 -22.37922668 66.72625732 C-22.37831528 65.43769836 -22.37740387 64.1491394 -22.37646484 62.8215332 C-22.38035525 61.47877877 -22.38469063 60.13602556 -22.38945007 58.79327393 C-22.39690623 55.97892267 -22.39662663 53.16469684 -22.39135742 50.3503418 C-22.38558072 46.76159216 -22.40245238 43.17336166 -22.4257021 39.58469772 C-22.44051332 36.81010994 -22.44130088 34.0356448 -22.43819237 31.26102448 C-22.43894893 29.30027489 -22.4527708 27.33954423 -22.46687317 25.37884521 C-22.39271504 10.9997227 -22.39271504 10.9997227 -17.72993469 5.7633667 C-12.22386002 0.85332883 -7.1529284 -0.02371824 0 0 Z " fill="#123850" transform="translate(23.07568359375,3.725341796875)"/>
<path d="M0 0 C7.92 0 15.84 0 24 0 C24.06791916 8.35405725 24.12289835 16.70789794 24.15543652 25.06215763 C24.17105735 28.94185246 24.19222949 32.82134773 24.22631836 36.70092773 C24.25904056 40.44864792 24.27687994 44.19617678 24.28463173 47.94402885 C24.29015227 49.37010139 24.30093244 50.79616407 24.31719017 52.22215462 C24.48849014 67.87723892 24.48849014 67.87723892 18.9375 74.4375 C17 76 17 76 15 76 C14.67 76.66 14.34 77.32 14 78 C9.25121002 79.15339168 4.49826622 79.14232255 -0.36035156 79.12939453 C-1.17731506 79.13114685 -1.99427856 79.13289917 -2.83599854 79.13470459 C-5.52089598 79.1390857 -8.20572695 79.13619942 -10.890625 79.1328125 C-12.76055921 79.13348635 -14.63049334 79.13445706 -16.50042725 79.13571167 C-20.41077512 79.13718335 -24.3211001 79.13505014 -28.23144531 79.13037109 C-33.25094538 79.12465831 -38.27039215 79.12796594 -43.28989029 79.13394356 C-47.14679367 79.13755 -51.00368432 79.13641047 -54.86058807 79.13381577 C-56.71221676 79.13314755 -58.56384659 79.13397127 -60.41547394 79.13629532 C-62.99608953 79.1388249 -65.57661753 79.13497763 -68.15722656 79.12939453 C-69.31049438 79.13243088 -69.31049438 79.13243088 -70.48706055 79.13552856 C-75.77146473 79.11426763 -75.77146473 79.11426763 -78 78 C-78 77.34 -78 76.68 -78 76 C-78.60328125 75.89429687 -79.2065625 75.78859375 -79.828125 75.6796875 C-82.85704649 74.73178761 -84.28023748 72.81811587 -86.0234375 70.24609375 C-87.86322446 66.01458375 -87.52391547 61.51315756 -87 57 C-86.67 56.34 -86.34 55.68 -86 55 C-57.62 55 -29.24 55 0 55 C0 48.73 0 42.46 0 36 C-8.91 36 -17.82 36 -27 36 C-27.020625 32.225625 -27.04125 28.45125 -27.0625 24.5625 C-27.071604 23.37084229 -27.08070801 22.17918457 -27.09008789 20.95141602 C-27.09258545 20.01998779 -27.09508301 19.08855957 -27.09765625 18.12890625 C-27.10289307 17.17056885 -27.10812988 16.21223145 -27.11352539 15.22485352 C-27 13 -27 13 -26 12 C-24.07332493 11.91251793 -22.14348139 11.89302666 -20.21484375 11.90234375 C-19.04501953 11.90556641 -17.87519531 11.90878906 -16.66992188 11.91210938 C-15.43822266 11.92048828 -14.20652344 11.92886719 -12.9375 11.9375 C-11.08415039 11.94426758 -11.08415039 11.94426758 -9.19335938 11.95117188 C-6.12888587 11.96300382 -3.06443707 11.98093992 0 12 C0 8.04 0 4.08 0 0 Z " fill="#42B852" transform="translate(88,36)"/>
<path d="M0 0 C3.26441458 2.53158682 5.12723477 4.73670136 7.0625 8.375 C7.0625 9.365 7.0625 10.355 7.0625 11.375 C5.4392313 12.0458712 3.81382422 12.71157029 2.1875 13.375 C1.28257812 13.74625 0.37765625 14.1175 -0.5546875 14.5 C-2.9375 15.375 -2.9375 15.375 -4.9375 15.375 C-5.2675 14.385 -5.5975 13.395 -5.9375 12.375 C-8.4125 11.88 -8.4125 11.88 -10.9375 11.375 C-11.2675 12.365 -11.5975 13.355 -11.9375 14.375 C-11.2775 14.6225 -10.6175 14.87 -9.9375 15.125 C-8.9475 15.5375 -7.9575 15.95 -6.9375 16.375 C-6.30972656 16.63152344 -5.68195313 16.88804688 -5.03515625 17.15234375 C0.14021521 19.46685728 4.39900296 22.22362111 7.0625 27.375 C7.94047 32.01880824 7.69782885 35.91374365 5.8125 40.25 C1.64864891 45.3061049 -1.33874654 47.724233 -8.0078125 48.66796875 C-14.20167782 49.06722488 -19.22090496 47.4861522 -23.9375 43.375 C-25.5094838 40.6751802 -26.15718074 38.44425577 -26.9375 35.375 C-25.50455502 34.53385829 -24.06595595 33.70234313 -22.625 32.875 C-21.82449219 32.4109375 -21.02398437 31.946875 -20.19921875 31.46875 C-17.9375 30.375 -17.9375 30.375 -14.9375 30.375 C-14.31875 31.035 -13.7 31.695 -13.0625 32.375 C-11.08672703 34.64638797 -11.08672703 34.64638797 -8.1875 34.625 C-7.445 34.5425 -6.7025 34.46 -5.9375 34.375 C-8.43768502 31.4400002 -11.007291 29.71116007 -14.375 27.9375 C-19.54081356 25.14218312 -22.97873818 22.58432071 -25.375 17.0625 C-26.14810103 11.99439322 -25.25623284 8.01246568 -22.9375 3.375 C-22.2775 3.375 -21.6175 3.375 -20.9375 3.375 C-20.6075 2.385 -20.2775 1.395 -19.9375 0.375 C-13.963065 -2.74847654 -6.05808888 -3.14026206 0 0 Z " fill="#113850" transform="translate(210.9375,16.625)"/>
<path d="M0 0 C3.2578125 -0.29296875 3.2578125 -0.29296875 7.125 -0.1875 C9.04699219 -0.14689453 9.04699219 -0.14689453 11.0078125 -0.10546875 C11.99523437 -0.07066406 12.98265625 -0.03585937 14 0 C16.12261024 6.03066727 18.23998773 12.06315311 20.35375977 18.09692383 C21.07326201 20.14877761 21.79395536 22.20021414 22.51586914 24.2512207 C23.55409117 27.2015433 24.58800232 30.15334631 25.62109375 33.10546875 C25.94403915 34.02023483 26.26698456 34.93500092 26.59971619 35.87748718 C26.89995193 36.73800186 27.20018768 37.59851654 27.50952148 38.48510742 C27.77377426 39.23789474 28.03802704 39.99068207 28.31028748 40.76628113 C29.04082359 43.13221223 29.51438726 45.57193631 30 48 C25.38 48 20.76 48 16 48 C14.68621331 43.75039385 13.37391736 39.50033729 12.0625 35.25 C11.68931641 34.0434375 11.31613281 32.836875 10.93164062 31.59375 C10.57392578 30.43359375 10.21621094 29.2734375 9.84765625 28.078125 C9.51773682 27.00981445 9.18781738 25.94150391 8.84790039 24.84082031 C8.16979397 22.56888069 7.54733277 20.30609541 7 18 C6.7326001 18.87325928 6.4652002 19.74651855 6.18969727 20.64624023 C5.19888065 23.87667711 4.20526524 27.1062248 3.2097168 30.33520508 C2.77889726 31.73459665 2.34920601 33.13433609 1.9206543 34.53442383 C1.30551642 36.54340013 0.68637072 38.55110248 0.06640625 40.55859375 C-0.30540771 41.76829834 -0.67722168 42.97800293 -1.06030273 44.22436523 C-2 47 -2 47 -3 48 C-5.18639453 48.07258946 -7.37500389 48.08373783 -9.5625 48.0625 C-11.35880859 48.04896484 -11.35880859 48.04896484 -13.19140625 48.03515625 C-14.11824219 48.02355469 -15.04507812 48.01195312 -16 48 C-14.65446097 41.43801165 -12.86002379 35.20716227 -10.6875 28.875 C-10.06231871 27.03131146 -9.43732003 25.187561 -8.8125 23.34375 C-8.50570313 22.44269531 -8.19890625 21.54164062 -7.8828125 20.61328125 C-7.07286877 18.21570446 -6.28113696 15.81334053 -5.5 13.40625 C-5.27610596 12.71934082 -5.05221191 12.03243164 -4.8215332 11.32470703 C-4.22676354 9.49573878 -3.63476782 7.66586911 -3.04296875 5.8359375 C-2 3 -2 3 0 0 Z " fill="#11384F" transform="translate(276,16)"/>
<path d="M0 0 C1.546875 0.99 1.546875 0.99 3.125 2 C2.67649342 3.81495662 2.21590429 5.62693134 1.75 7.4375 C1.36714844 8.95150391 1.36714844 8.95150391 0.9765625 10.49609375 C0.125 13 0.125 13 -1.875 14 C-2.75671875 13.54753906 -2.75671875 13.54753906 -3.65625 13.0859375 C-7.78194017 11.06667365 -12.39524278 11.4281161 -16.875 12 C-19.53063802 13.8968843 -20.44742527 15.14485055 -21.875 18 C-22.31308718 22.28819956 -22.32426618 25.94422448 -20.625 29.9375 C-18.70496021 32.20040404 -17.70656597 33.13479929 -14.875 34 C-10.2419257 34.33695086 -7.08946187 33.87309417 -2.875 32 C-1.885 32 -0.895 32 0.125 32 C0.63059908 33.43554025 1.1292749 34.8735202 1.625 36.3125 C1.9034375 37.11300781 2.181875 37.91351563 2.46875 38.73828125 C3.125 41 3.125 41 3.125 44 C-4.55220569 48.10641235 -11.91279825 49.31567049 -20.375 46.9375 C-27.02191926 44.46930028 -32.1074613 40.12974149 -35.375 33.8125 C-37.96677119 27.06237592 -37.96662561 19.47547526 -35.6875 12.625 C-32.63823802 5.86906636 -28.50324866 2.00290185 -21.82421875 -1.08203125 C-14.68140075 -3.30529248 -6.77170409 -3.34983234 0 0 Z " fill="#133951" transform="translate(256.875,17)"/>
<path d="M0 0 C8.58 0 17.16 0 26 0 C26 3.96 26 7.92 26 12 C21.71 12 17.42 12 13 12 C13 13.98 13 15.96 13 18 C13.78246094 17.98839844 14.56492188 17.97679688 15.37109375 17.96484375 C16.38300781 17.95582031 17.39492187 17.94679688 18.4375 17.9375 C19.44683594 17.92589844 20.45617187 17.91429688 21.49609375 17.90234375 C24 18 24 18 25 19 C25.09854655 20.64340867 25.12972411 22.2911461 25.125 23.9375 C25.12886719 25.28134766 25.12886719 25.28134766 25.1328125 26.65234375 C25 29 25 29 24 31 C20.7 31 17.4 31 14 31 C13.67 36.61 13.34 42.22 13 48 C8.71 48 4.42 48 0 48 C-0.89218549 42.65751885 -1.14675392 37.52045083 -1.1328125 32.109375 C-1.13376923 31.28294495 -1.13472595 30.45651489 -1.13571167 29.6050415 C-1.13638832 27.87048262 -1.1345702 26.13592112 -1.13037109 24.40136719 C-1.12498801 21.74408332 -1.13034755 19.08696636 -1.13671875 16.4296875 C-1.13605841 14.73958296 -1.13477817 13.04947853 -1.1328125 11.359375 C-1.13483673 10.56561462 -1.13686096 9.77185425 -1.13894653 8.95404053 C-1.12508738 5.70940556 -1.03340206 3.10020617 0 0 Z " fill="#173D54" transform="translate(137,16)"/>
<path d="M0 0 C4.29 0 8.58 0 13 0 C14 1 14 1 14.11352539 4.23461914 C14.11336631 5.66814126 14.10767407 7.10166912 14.09765625 8.53515625 C14.0962413 9.28840683 14.09482635 10.04165741 14.09336853 10.81773376 C14.08775376 13.2326956 14.07519883 15.64756601 14.0625 18.0625 C14.0574869 19.69596221 14.05292366 21.32942586 14.04882812 22.96289062 C14.03777954 26.97529585 14.02050506 30.98763241 14 35 C18.29 35.33 22.58 35.66 27 36 C27 39.96 27 43.92 27 48 C18.09 48 9.18 48 0 48 C0 32.16 0 16.32 0 0 Z " fill="#193E55" transform="translate(308,16)"/>
<path d="M0 0 C4.29 0 8.58 0 13 0 C13 15.84 13 31.68 13 48 C8.71 48 4.42 48 0 48 C0 32.16 0 16.32 0 0 Z " fill="#0C334C" transform="translate(168,16)"/>
<path d="M0 0 C5 1 5 1 6.25439453 2.50292969 C6.54427246 3.13618164 6.83415039 3.76943359 7.1328125 4.421875 C7.46410156 5.11796875 7.79539063 5.8140625 8.13671875 6.53125 C8.46285156 7.2634375 8.78898438 7.995625 9.125 8.75 C9.79257021 10.18308509 10.46180645 11.61539543 11.1328125 13.046875 C11.44637695 13.72556641 11.75994141 14.40425781 12.08300781 15.10351562 C13.24084123 17.49809762 14.57671656 19.75457147 16 22 C16.27674561 21.36908447 16.55349121 20.73816895 16.83862305 20.08813477 C18.1022238 17.23720953 19.39433364 14.40012888 20.6875 11.5625 C21.34008789 10.07266602 21.34008789 10.07266602 22.00585938 8.55273438 C22.44091797 7.60849609 22.87597656 6.66425781 23.32421875 5.69140625 C23.71697998 4.81685791 24.10974121 3.94230957 24.5144043 3.04125977 C26 1 26 1 28.66723633 0.20678711 C29.43704834 0.13854736 30.20686035 0.07030762 31 0 C32.42503565 2.85007131 32.12980035 5.28620255 32.1328125 8.46875 C32.13474609 10.40814453 32.13474609 10.40814453 32.13671875 12.38671875 C32.13462402 13.06138184 32.1325293 13.73604492 32.13037109 14.43115234 C32.12502093 16.49193689 32.13032035 18.55250349 32.13671875 20.61328125 C32.13542969 21.90621094 32.13414062 23.19914062 32.1328125 24.53125 C32.13168457 25.72298828 32.13055664 26.91472656 32.12939453 28.14257812 C32 31 32 31 31 33 C29.68 32.67 28.36 32.34 27 32 C26.505 22.595 26.505 22.595 26 13 C23.36 18.61 20.72 24.22 18 30 C13 29 13 29 11.69799805 27.32592773 C11.38902588 26.61895752 11.08005371 25.9119873 10.76171875 25.18359375 C10.44936279 24.49579834 10.13700684 23.80800293 9.81518555 23.09936523 C9.44304932 22.22094971 9.07091309 21.34253418 8.6875 20.4375 C7.470625 17.653125 6.25375 14.86875 5 12 C4.67 18.93 4.34 25.86 4 33 C2.68 33 1.36 33 0 33 C0 22.11 0 11.22 0 0 Z " fill="#1F435A" transform="translate(216,71)"/>
<path d="M0 0 C2.35262499 0.38740643 3.68825301 0.68939434 5.40039062 2.39526367 C6.02204102 3.27275269 6.02204102 3.27275269 6.65625 4.16796875 C7.12160156 4.81443359 7.58695312 5.46089844 8.06640625 6.12695312 C8.53949219 6.80693359 9.01257813 7.48691406 9.5 8.1875 C9.97308594 8.84814453 10.44617188 9.50878906 10.93359375 10.18945312 C13.70443975 14.07708054 16.35016883 18.02525324 19 22 C19.33 15.07 19.66 8.14 20 1 C21.32 0.67 22.64 0.34 24 0 C25.42503565 2.85007131 25.12980035 5.28620255 25.1328125 8.46875 C25.13474609 10.40814453 25.13474609 10.40814453 25.13671875 12.38671875 C25.13357666 13.39871338 25.13357666 13.39871338 25.13037109 14.43115234 C25.12502093 16.49193689 25.13032035 18.55250349 25.13671875 20.61328125 C25.13542969 21.90621094 25.13414062 23.19914062 25.1328125 24.53125 C25.13168457 25.72298828 25.13055664 26.91472656 25.12939453 28.14257812 C25 31 25 31 24 33 C22.68 33 21.36 33 20 33 C18.359375 30.98046875 18.359375 30.98046875 16.75 28.1875 C13.15528578 22.18331357 9.16340306 16.62424624 5 11 C4.67 18.26 4.34 25.52 4 33 C2.68 33 1.36 33 0 33 C-1.16091503 26.55968568 -1.14845125 20.21867427 -1.125 13.6875 C-1.12886719 12.59115234 -1.13273437 11.49480469 -1.13671875 10.36523438 C-1.13542969 9.32044922 -1.13414062 8.27566406 -1.1328125 7.19921875 C-1.13112061 5.77355591 -1.13112061 5.77355591 -1.12939453 4.3190918 C-1 2 -1 2 0 0 Z " fill="#567282" transform="translate(287,71)"/>
<path d="M0 0 C1.98 0.495 1.98 0.495 4 1 C4 5.29 4 9.58 4 14 C8.95 14 13.9 14 19 14 C19 9.71 19 5.42 19 1 C20.32 0.67 21.64 0.34 23 0 C24 1 24 1 24.11352539 3.95922852 C24.10828857 5.25272217 24.10305176 6.54621582 24.09765625 7.87890625 C24.0962413 8.5655687 24.09482635 9.25223114 24.09336853 9.95970154 C24.08775479 12.16067801 24.07520007 14.36155409 24.0625 16.5625 C24.05748676 18.05143083 24.05292355 19.54036324 24.04882812 21.02929688 C24.03778093 24.68623075 24.02050713 28.34310558 24 32 C22.0625 32.5625 22.0625 32.5625 20 33 C19 32 19 32 18.90234375 29.05859375 C18.93489583 25.70572917 18.96744792 22.35286458 19 19 C14.38 19 9.76 19 5 19 C4.67 23.29 4.34 27.58 4 32 C2.02 32.495 2.02 32.495 0 33 C-1.90849948 31.09150052 -1.13059633 27.68521226 -1.1328125 25.15625 C-1.13376923 24.47195923 -1.13472595 23.78766846 -1.13571167 23.0826416 C-1.1363933 21.63338123 -1.13454023 20.18411782 -1.13037109 18.73486328 C-1.12502252 16.50937072 -1.1303166 14.28407999 -1.13671875 12.05859375 C-1.13605797 10.65364539 -1.1347768 9.24869715 -1.1328125 7.84375 C-1.13168457 6.55662109 -1.13055664 5.26949219 -1.12939453 3.94335938 C-1 1 -1 1 0 0 Z " fill="#657F8D" transform="translate(138,71)"/>
<path d="M0 0 C3.74441741 1.90063704 6.3906171 4.46031286 8.265625 8.2265625 C10.04097071 13.94128477 9.8635613 19.4412698 7.23828125 24.7890625 C0.68696729 32.04862662 0.68696729 32.04862662 -4.24609375 32.58984375 C-10.09268412 32.75815468 -13.50614738 32.37581585 -18.07421875 28.3515625 C-22.6970281 23.10404918 -23.42752875 20.0040186 -23.35546875 13.11328125 C-22.8310252 7.96353694 -20.19377533 5.33783853 -16.44921875 2.0390625 C-11.4902571 -1.48441025 -5.83460982 -1.82400232 0 0 Z M-16.82421875 8.0390625 C-18.62116489 11.36341286 -19.20381686 14.61481691 -19.07421875 18.3515625 C-17.67489406 22.05977292 -16.11735957 24.81561181 -13.07421875 27.3515625 C-8.88222588 28.59188998 -5.22308973 28.85107162 -1.19921875 27.1015625 C2.7679512 23.88881955 2.7679512 23.88881955 4.92578125 19.3515625 C5.32122623 15.15984569 5.19539026 12.87080948 3.23828125 9.1015625 C0.09054849 5.35831274 -2.17702624 3.58871156 -7.07421875 2.9765625 C-11.33337501 3.50895703 -13.76965872 5.0935939 -16.82421875 8.0390625 Z " fill="#23465C" transform="translate(274.07421875,71.6484375)"/>
<path d="M0 0 C5.48547302 0.04701834 8.37059842 1.37059842 12.25 5.25 C12.55078125 7.30859375 12.55078125 7.30859375 12.5625 9.6875 C12.57925781 10.46996094 12.59601563 11.25242187 12.61328125 12.05859375 C12.16938578 14.73628579 11.20431467 15.45595981 9.25 17.25 C9.34441847 20.64906489 10.60583268 22.96602272 12.3125 25.8125 C14.25 29.25 14.25 29.25 14.25 33.25 C12.93 33.25 11.61 33.25 10.25 33.25 C7.94 28.96 5.63 24.67 3.25 20.25 C1.93 20.25 0.61 20.25 -0.75 20.25 C-0.75 24.21 -0.75 28.17 -0.75 32.25 C-2.73 32.745 -2.73 32.745 -4.75 33.25 C-6.65849948 31.34150052 -5.88059633 27.93521226 -5.8828125 25.40625 C-5.88376923 24.72195923 -5.88472595 24.03766846 -5.88571167 23.3326416 C-5.8863933 21.88338123 -5.88454023 20.43411782 -5.88037109 18.98486328 C-5.87502252 16.75937072 -5.8803166 14.53407999 -5.88671875 12.30859375 C-5.88605797 10.90364539 -5.8847768 9.49869715 -5.8828125 8.09375 C-5.88168457 6.80662109 -5.88055664 5.51949219 -5.87939453 4.19335938 C-5.67414866 -0.4754033 -4.2584935 0.07559456 0 0 Z M-0.75 5.25 C-0.75 8.55 -0.75 11.85 -0.75 15.25 C4.26535052 14.92039784 4.26535052 14.92039784 8.25 12.25 C8.58333333 9.75 8.58333333 9.75 8.25 7.25 C6.29366025 4.83878141 6.29366025 4.83878141 2.625 5.125 C0.954375 5.186875 0.954375 5.186875 -0.75 5.25 Z " fill="#4B697A" transform="translate(198.75,70.75)"/>
<path d="M0 0 C1.88769531 0.05737305 1.88769531 0.05737305 4 1 C5.46386719 3.62036133 5.46386719 3.62036133 6.796875 7.08203125 C7.0353717 7.69261887 7.27386841 8.30320648 7.51959229 8.93229675 C8.0209336 10.2248927 8.51471475 11.52044261 9.00146484 12.81860352 C9.74561271 14.80081343 10.51311452 16.77265052 11.28515625 18.74414062 C15 28.38950986 15 28.38950986 15 33 C13.68 33 12.36 33 11 33 C6.545 21.615 6.545 21.615 2 10 C0.26306335 12.60540498 -0.80682023 14.78501252 -1.9453125 17.66796875 C-2.29980469 18.56064453 -2.65429688 19.45332031 -3.01953125 20.37304688 C-3.38433594 21.30181641 -3.74914062 22.23058594 -4.125 23.1875 C-4.68380859 24.59805664 -4.68380859 24.59805664 -5.25390625 26.03710938 C-6.17238701 28.35686205 -7.08762171 30.6778419 -8 33 C-9.32 33 -10.64 33 -12 33 C-10.59472929 25.6280881 -8.22760706 18.95543277 -5.4375 12 C-5.02564453 10.95199219 -4.61378906 9.90398437 -4.18945312 8.82421875 C-1.14773261 1.14773261 -1.14773261 1.14773261 0 0 Z " fill="#38586C" transform="translate(176,71)"/>
<path d="M0 0 C1.32 0 2.64 0 4 0 C5.42503565 2.85007131 5.12980035 5.28620255 5.1328125 8.46875 C5.13474609 10.40814453 5.13474609 10.40814453 5.13671875 12.38671875 C5.13357666 13.39871338 5.13357666 13.39871338 5.13037109 14.43115234 C5.12502093 16.49193689 5.13032035 18.55250349 5.13671875 20.61328125 C5.13542969 21.90621094 5.13414062 23.19914062 5.1328125 24.53125 C5.13168457 25.72298828 5.13055664 26.91472656 5.12939453 28.14257812 C5 31 5 31 4 33 C2.68 32.67 1.36 32.34 0 32 C-0.33 25.73 -0.66 19.46 -1 13 C-2.32 15.64 -3.64 18.28 -5 21 C-5.99 20.67 -6.98 20.34 -8 20 C-7.45318976 14.99399078 -5.75859667 11.02818933 -3.4375 6.625 C-3.10814453 5.98433594 -2.77878906 5.34367187 -2.43945312 4.68359375 C-1.63360518 3.11861368 -0.81781507 1.55875979 0 0 Z " fill="#4E6C7C" transform="translate(243,71)"/>
<path d="M0 0 C2.83417891 0.35119173 3.81648089 0.78491224 5.703125 2.99609375 C6.21359375 3.80175781 6.7240625 4.60742188 7.25 5.4375 C7.77078125 6.24058594 8.2915625 7.04367188 8.828125 7.87109375 C10 10 10 10 10 12 C10.66 12 11.32 12 12 12 C12.3403125 10.9790625 12.3403125 10.9790625 12.6875 9.9375 C14.30210338 6.32386386 16.22513188 2.85720842 19 0 C19.99 0 20.98 0 22 0 C21.44527074 4.27603808 19.92968876 6.79243862 17.5 10.3125 C12.99928271 17.6848406 12.92538213 24.6001602 13 33 C11.68 33 10.36 33 9 33 C9.020625 32.00742188 9.04125 31.01484375 9.0625 29.9921875 C9.00342516 20.25448344 7.06799842 13.91224267 1.71484375 5.79296875 C0 3 0 3 0 0 Z " fill="#25485E" transform="translate(314,71)"/>
<path d="M0 0 C2.97 0 5.94 0 9 0 C8.67 0.66 8.34 1.32 8 2 C6.02 2 4.04 2 2 2 C2 5.63 2 9.26 2 13 C3.2375 12.690625 4.475 12.38125 5.75 12.0625 C9.875 11.03125 9.875 11.03125 14 10 C13.731875 11.134375 13.46375 12.26875 13.1875 13.4375 C12.539565 18.23733426 14.27499349 20.98881848 16.87109375 24.921875 C18 27 18 27 18 31 C16.68 31 15.36 31 14 31 C12.82823482 28.87767021 11.66245215 26.75242209 10.5 24.625 C10.16613281 24.02171875 9.83226562 23.4184375 9.48828125 22.796875 C7 18.2265625 7 18.2265625 7 16 C5.02 16 3.04 16 1 16 C1 20.29 1 24.58 1 29 C0.67 29 0.34 29 0 29 C0 19.43 0 9.86 0 0 Z " fill="#10374F" transform="translate(195,73)"/>
<path d="M0 0 C0.99 0 1.98 0 3 0 C3 4.29 3 8.58 3 13 C8.61 13 14.22 13 20 13 C20 8.71 20 4.42 20 0 C20.66 0 21.32 0 22 0 C22 9.57 22 19.14 22 29 C21.67 29 21.34 29 21 29 C20.505 22.565 20.505 22.565 20 16 C14.39 15.67 8.78 15.34 3 15 C3 20.28 3 25.56 3 31 C2.01 31 1.02 31 0 31 C0 20.77 0 10.54 0 0 Z " fill="#0C344C" transform="translate(138,73)"/>
<path d="M0 0 C3.13506611 0.33589994 4.025249 1.02665172 6.25 3.375 C8 6 8 6 8 9 C7.01 9.33 6.02 9.66 5 10 C4.67 17.59 4.34 25.18 4 33 C2.68 33 1.36 33 0 33 C-1.16091503 26.55968568 -1.14845125 20.21867427 -1.125 13.6875 C-1.12886719 12.59115234 -1.13273437 11.49480469 -1.13671875 10.36523438 C-1.13542969 9.32044922 -1.13414062 8.27566406 -1.1328125 7.19921875 C-1.13112061 5.77355591 -1.13112061 5.77355591 -1.12939453 4.3190918 C-1 2 -1 2 0 0 Z " fill="#38586C" transform="translate(287,71)"/>
<path d="M0 0 C0.33 0.66 0.66 1.32 1 2 C0.25234375 2.15855469 -0.4953125 2.31710938 -1.265625 2.48046875 C-7.49099549 3.86441454 -7.49099549 3.86441454 -12.5625 7.5 C-13.036875 8.325 -13.51125 9.15 -14 10 C-14.99 11.485 -14.99 11.485 -16 13 C-16.45139459 15.0492094 -16.45139459 15.0492094 -16.625 17.1875 C-16.74875 18.445625 -16.8725 19.70375 -17 21 C-19 19 -19 19 -19.22265625 16.171875 C-18.73635013 5.7815295 -18.73635013 5.7815295 -15.125 2.1875 C-10.50949859 -1.04046028 -5.3925144 -0.52657464 0 0 Z " fill="#1D4258" transform="translate(271,72)"/>
<path d="M0 0 C1.17571451 3.67410785 1.07366746 7.16929183 1 11 C1.33 8.69 1.66 6.38 2 4 C2.33 4 2.66 4 3 4 C3.09796875 4.59167969 3.1959375 5.18335937 3.296875 5.79296875 C4.23692667 10.76065559 4.99237001 14.60892847 9 18 C11.96462525 18.97284766 14.9146151 19.55828891 18 20 C18 20.33 18 20.66 18 21 C16.3603125 21.2165625 16.3603125 21.2165625 14.6875 21.4375 C11.06877013 21.88288104 11.06877013 21.88288104 8 23 C6.24609375 21.92578125 6.24609375 21.92578125 4.4375 20.3125 C3.83808594 19.79300781 3.23867187 19.27351563 2.62109375 18.73828125 C-0.73810541 15.13624842 -1.25966374 12.24277243 -1.1875 7.375 C-1.18105469 6.41335937 -1.17460937 5.45171875 -1.16796875 4.4609375 C-1 2 -1 2 0 0 Z " fill="#2F5165" transform="translate(252,80)"/>
<path d="M0 0 C10.62228146 -0.55689631 10.62228146 -0.55689631 15 3 C17 5 17 5 17.1953125 7.1640625 C17.17210937 7.97617188 17.14890625 8.78828125 17.125 9.625 C17.10695312 10.44226563 17.08890625 11.25953125 17.0703125 12.1015625 C17.04710937 12.72804688 17.02390625 13.35453125 17 14 C16.01 14.495 16.01 14.495 15 15 C15 14.01 15 13.02 15 12 C14.34 12 13.68 12 13 12 C12.34 10.02 11.68 8.04 11 6 C8.69 5.67 6.38 5.34 4 5 C4 8.3 4 11.6 4 15 C3.67 15 3.34 15 3 15 C3 11.37 3 7.74 3 4 C4.98 3.67 6.96 3.34 9 3 C9 2.67 9 2.34 9 2 C6.03 1.67 3.06 1.34 0 1 C0 0.67 0 0.34 0 0 Z " fill="#5A7685" transform="translate(194,71)"/>
<path d="M0 0 C2.83417891 0.35119173 3.81648089 0.78491224 5.703125 2.99609375 C6.21359375 3.80175781 6.7240625 4.60742188 7.25 5.4375 C7.77078125 6.24058594 8.2915625 7.04367188 8.828125 7.87109375 C10 10 10 10 10 12 C10.66 12 11.32 12 12 12 C12.33 11.01 12.66 10.02 13 9 C13.33 9.66 13.66 10.32 14 11 C13.67 11.66 13.34 12.32 13 13 C12.34 13.144375 11.68 13.28875 11 13.4375 C10.34 13.623125 9.68 13.80875 9 14 C8.67 14.99 8.34 15.98 8 17 C6.65869239 14.73354942 5.32683766 12.46239903 4 10.1875 C3.42765625 9.22360352 3.42765625 9.22360352 2.84375 8.24023438 C0 3.33984375 0 3.33984375 0 0 Z " fill="#315367" transform="translate(314,71)"/>
<path d="M0 0 C0.66 0 1.32 0 2 0 C2 9.57 2 19.14 2 29 C0.68 29 -0.64 29 -2 29 C-2.33 27.02 -2.66 25.04 -3 23 C-2.34 23 -1.68 23 -1 23 C-0.67 15.41 -0.34 7.82 0 0 Z " fill="#0D344C" transform="translate(308,73)"/>
<path d="M0 0 C0.33 0.66 0.66 1.32 1 2 C1.66 2 2.32 2 3 2 C2.49287967 5.71888239 1.88391785 8.73454239 0 12 C-2.375 11.75 -2.375 11.75 -5 11 C-6.375 9.125 -6.375 9.125 -7 7 C-6 4 -6 4 -4 1 C-3.34 1.99 -2.68 2.98 -2 4 C-1.34 2.68 -0.68 1.36 0 0 Z " fill="#2B4E63" transform="translate(234,89)"/>
<path d="M0 0 C0.66 0.33 1.32 0.66 2 1 C2.12375 1.70125 2.2475 2.4025 2.375 3.125 C2.9628299 5.82901753 3.64662655 7.25239068 5.0625 9.5625 C7 13 7 13 7 17 C5.68 17 4.36 17 3 17 C0.69 12.38 -1.62 7.76 -4 3 C-3.01 3 -2.02 3 -1 3 C-0.67 2.01 -0.34 1.02 0 0 Z " fill="#3A5A6D" transform="translate(206,87)"/>
<path d="M0 0 C7.93406593 11.9010989 7.93406593 11.9010989 7 19 C5.203125 18.4453125 5.203125 18.4453125 3 17 C1.74973882 14.60844535 0.71945037 12.37281855 -0.25 9.875 C-0.518125 9.21628906 -0.78625 8.55757812 -1.0625 7.87890625 C-1.7204713 6.25747697 -2.36187627 4.62934259 -3 3 C-2.34 3 -1.68 3 -1 3 C-0.67 2.01 -0.34 1.02 0 0 Z " fill="#23475C" transform="translate(222,75)"/>
<path d="M0 0 C0 0.66 0 1.32 0 2 C-3.96 3.98 -3.96 3.98 -8 6 C-7.89207179 8.9042893 -7.89207179 8.9042893 -7 12 C-3.05653585 15.11945672 0.37638307 15.45684033 5.3125 15.6875 C6.56675781 15.75324219 7.82101563 15.81898437 9.11328125 15.88671875 C10.06589844 15.92410156 11.01851562 15.96148437 12 16 C7.90184039 18.73210641 4.8097482 18.71843723 0 18 C-4.26574096 16.55796493 -7.90848819 14.87462821 -10.23046875 10.88671875 C-11.0625 8.6875 -11.0625 8.6875 -12 5 C-10.56705502 4.15885829 -9.12845595 3.32734313 -7.6875 2.5 C-6.88699219 2.0359375 -6.08648437 1.571875 -5.26171875 1.09375 C-3 0 -3 0 0 0 Z " fill="#4C697A" transform="translate(196,47)"/>
<path d="M0 0 C6.8955466 -0.49947621 11.42352799 -0.2985305 17 4 C18.4375 6.75 18.4375 6.75 19 9 C17.02 9.99 17.02 9.99 15 11 C14.1028125 9.7934375 14.1028125 9.7934375 13.1875 8.5625 C11.19052724 5.77672016 11.19052724 5.77672016 8 5 C8.33 4.01 8.66 3.02 9 2 C6.03 1.67 3.06 1.34 0 1 C0 0.67 0 0.34 0 0 Z " fill="#37586B" transform="translate(262,71)"/>
<path d="M0 0 C0.99 0 1.98 0 3 0 C3 9.57 3 19.14 3 29 C2.67 29 2.34 29 2 29 C2 20.75 2 12.5 2 4 C1.34 4 0.68 4 0 4 C-0.33 5.32 -0.66 6.64 -1 8 C-1.66 8 -2.32 8 -3 8 C-3 7.01 -3 6.02 -3 5 C-2.34 5 -1.68 5 -1 5 C-0.67 3.35 -0.34 1.7 0 0 Z " fill="#072F48" transform="translate(243,73)"/>
<path d="M0 0 C0.33 1.32 0.66 2.64 1 4 C1.66 4 2.32 4 3 4 C2.39009109 7.55780196 1.4216319 10.6828589 0 14 C-1.32 14 -2.64 14 -4 14 C-3.00956295 9.16371695 -2.04301154 4.52381127 0 0 Z " fill="#26495E" transform="translate(168,90)"/>
<path d="M0 0 C0.99 0 1.98 0 3 0 C2.43454163 3.95820859 1.19097652 6.6659053 -1 10 C-2.32 9.67 -3.64 9.34 -5 9 C-3.76067171 5.56801397 -2.49698489 2.69674368 0 0 Z " fill="#325367" transform="translate(333,71)"/>
<path d="M0 0 C0 0.66 0 1.32 0 2 C-2.52475462 3.26237731 -4.31200466 3.09856404 -7.125 3.0625 C-8.03507812 3.05347656 -8.94515625 3.04445313 -9.8828125 3.03515625 C-10.58148438 3.02355469 -11.28015625 3.01195313 -12 3 C-11.67 2.01 -11.34 1.02 -11 0 C-3.57142857 -1.28571429 -3.57142857 -1.28571429 0 0 Z " fill="#1E4259" transform="translate(274,101)"/>
<path d="M0 0 C0.33 1.32 0.66 2.64 1 4 C2.62580966 3.88601335 4.25067157 3.75844341 5.875 3.625 C6.77992188 3.55539063 7.68484375 3.48578125 8.6171875 3.4140625 C11.17941903 3.20431868 11.17941903 3.20431868 13 1 C12.67 2.65 12.34 4.3 12 6 C7.71 6 3.42 6 -1 6 C-0.67 4.02 -0.34 2.04 0 0 Z " fill="#3E5E70" transform="translate(261,58)"/>
<path d="M0 0 C2 3 2 3 2 5 C-2.62 5 -7.24 5 -12 5 C-11.67 3.68 -11.34 2.36 -11 1 C-11 1.66 -11 2.32 -11 3 C-7.37 3 -3.74 3 0 3 C0 2.01 0 1.02 0 0 Z " fill="#456475" transform="translate(304,59)"/>
<path d="M0 0 C0.66 0.33 1.32 0.66 2 1 C2.4140625 3.28515625 2.4140625 3.28515625 2.625 6.0625 C2.69976562 6.98160156 2.77453125 7.90070313 2.8515625 8.84765625 C2.90054688 9.55792969 2.94953125 10.26820312 3 11 C-2.875 6.375 -2.875 6.375 -4 3 C-3.01 3 -2.02 3 -1 3 C-0.67 2.01 -0.34 1.02 0 0 Z " fill="#2D5064" transform="translate(206,87)"/>
<path d="M0 0 C2.18975773 3.28463659 2.99806563 6.20696275 4 10 C3.34 9.67 2.68 9.34 2 9 C2 8.01 2 7.02 2 6 C1.34 6 0.68 6 0 6 C0.33 7.98 0.66 9.96 1 12 C-0.9451 9.08235 -1.45276317 7.37462715 -2 4 C-1.34 4 -0.68 4 0 4 C0 2.68 0 1.36 0 0 Z " fill="#3D5D6F" transform="translate(183,82)"/>
<path d="M0 0 C1.74627478 2.61941217 2.38722388 4.03824877 3 7 C1.68 7.33 0.36 7.66 -1 8 C-1.66 6.35 -2.32 4.7 -3 3 C-2.34 3 -1.68 3 -1 3 C-0.67 2.01 -0.34 1.02 0 0 Z " fill="#2D5064" transform="translate(222,75)"/>
<path d="M0 0 C1.32 0.99 2.64 1.98 4 3 C3 6 3 6 0.9375 7.1875 C0.298125 7.455625 -0.34125 7.72375 -1 8 C-1.625 5.6875 -1.625 5.6875 -2 3 C-1.34 2.01 -0.68 1.02 0 0 Z " fill="#466476" transform="translate(229,90)"/>
<path d="M0 0 C1.32 1.32 2.64 2.64 4 4 C2.68 4.99 1.36 5.98 0 7 C-0.99 5.35 -1.98 3.7 -3 2 C-2.01 1.34 -1.02 0.68 0 0 Z " fill="#345569" transform="translate(295,79)"/>
<path d="M0 0 C1.98 0.495 1.98 0.495 4 1 C3.67 2.32 3.34 3.64 3 5 C1.68 5.33 0.36 5.66 -1 6 C-0.67 4.02 -0.34 2.04 0 0 Z " fill="#0B324A" transform="translate(176,73)"/>
<path d="M0 0 C1 2 1 2 0.51171875 3.91015625 C0.23972656 4.62042969 -0.03226563 5.33070312 -0.3125 6.0625 C-0.57675781 6.77535156 -0.84101563 7.48820312 -1.11328125 8.22265625 C-2 10 -2 10 -4 11 C-2.95902388 7.13351728 -1.96301592 3.50538557 0 0 Z " fill="#093049" transform="translate(172,85)"/>
<path d="M0 0 C0.66 0.33 1.32 0.66 2 1 C1.0479279 2.00596297 0.08812654 3.00461563 -0.875 4 C-1.40867187 4.556875 -1.94234375 5.11375 -2.4921875 5.6875 C-4 7 -4 7 -6 7 C-4.60667426 3.63279613 -3.0210714 2.0140476 0 0 Z " fill="#274A5F" transform="translate(10,6)"/>
<path d="M0 0 C1 4 1 4 0 7 C0.66 7 1.32 7 2 7 C2 7.66 2 8.32 2 9 C0.68 9 -0.64 9 -2 9 C-1.34 6.03 -0.68 3.06 0 0 Z " fill="#567282" transform="translate(166,95)"/>
<path d="M0 0 C0.66 0 1.32 0 2 0 C2.33 2.31 2.66 4.62 3 7 C2.01 6.67 1.02 6.34 0 6 C0 4.02 0 2.04 0 0 Z " fill="#153A52" transform="translate(186,96)"/>
<path d="M0 0 C1.875 0.25 1.875 0.25 4 1 C5.25 3.0625 5.25 3.0625 6 5 C4.68 4.34 3.36 3.68 2 3 C1.67 3.66 1.34 4.32 1 5 C0.67 3.35 0.34 1.7 0 0 Z " fill="#4C6A7B" transform="translate(314,71)"/>
</svg>
